<svg xmlns="http://www.w3.org/2000/svg" xmlns:xlink="http://www.w3.org/1999/xlink" 
version="1.2" baseProfile="tiny" x="0px" y="0px" viewBox="0 0 100 125"
 xml:space="preserve">
 <path d="M85,35H15C9.477,35,5,39.477,5,45v20c0,5.523,4.477,10,10,10h25v12.5H25V95h50v-7.5H60V75h25c5.523,0,10-4.477,10-10V45   C95,39.477,90.523,35,85,35z M17.5,67.5H15c-1.378,0-2.5-1.122-2.5-2.5V45c0-1.379,1.122-2.5,2.5-2.5h2.5V67.5z M55,87.5H45V75h10   V87.5z M77.5,67.5h-55v-25h55V67.5z M87.5,65c0,1.378-1.122,2.5-2.5,2.5h-2.5v-25H85c1.378,0,2.5,1.121,2.5,2.5V65z"/>
 <path d="M67.5,7.5c0,1.378-1.122,2.5-2.5,2.5c-6.893,0-12.5,5.607-12.5,12.5V30h5v-7.5c0-4.136,3.364-7.5,7.5-7.5   s7.5-3.364,7.5-7.5V5h-5V7.5z"/>
 <path d="M62.5,27.5V30h5v-2.5c0-1.378,1.122-2.5,2.5-2.5c6.893,0,12.5-5.607,12.5-12.5V5h-5v7.5c0,4.136-3.364,7.5-7.5,7.5   S62.5,23.364,62.5,27.5z"/>
 <path d="M32.5,7.5c0,1.378-1.122,2.5-2.5,2.5c-6.893,0-12.5,5.607-12.5,12.5V30h5v-7.5c0-4.136,3.364-7.5,7.5-7.5   s7.5-3.364,7.5-7.5V5h-5V7.5z"/>
 <path d="M27.5,27.5V30h5v-2.5c0-1.378,1.122-2.5,2.5-2.5c6.893,0,12.5-5.607,12.5-12.5V5h-5v7.5c0,4.136-3.364,7.5-7.5,7.5   S27.5,23.364,27.5,27.5z"/>
 <rect x="27.5" y="57.5" width="45" height="5"/>
 <rect x="27.5" y="47.5" width="45" height="5"/>
 <text x="0" y="115" fill="#000000" font-size="5px" font-weight="bold" font-family="'Helvetica Neue', Helvetica, Arial-Unicode, Arial, Sans-serif">Created by Arthur Shlain</text><text x="0" y="120" fill="#000000" font-size="5px" font-weight="bold" font-family="'Helvetica Neue', Helvetica, Arial-Unicode, Arial, Sans-serif">from the Noun Project</text>
</svg>