<svg xmlns="http://www.w3.org/2000/svg" 
xmlns:xlink="http://www.w3.org/1999/xlink"
 version="1.1" x="0px" y="0px" viewBox="0 0 32 40"
  enable-background="new 0 0 32 32"
   xml:space="preserve"><g>
   <path d="M29,24h-8c-0.5522461,0-1,0.4477539-1,1c0,1.1030273-0.8969727,2-2,2h-4c-1.1030273,0-2-0.8969727-2-2   c0-0.5522461-0.4477539-1-1-1H3c-0.5522461,0-1,0.4477539-1,1v4c0,0.5522461,0.4477539,1,1,1h26c0.5522461,0,1-0.4477539,1-1v-4   C30,24.4477539,29.5522461,24,29,24z"/>
   <path d="M19,9h-6c-0.5522461,0-1,0.4477539-1,1v2c0,0.5522461,0.4477539,1,1,1h6c0.5522461,0,1-0.4477539,1-1v-2   C20,9.4477539,19.5522461,9,19,9z"/>
   <path d="M12,23c-0.2558594,0-0.5117188-0.0976563-0.7070313-0.2929688l-1-1c-0.390625-0.390625-0.390625-1.0234375,0-1.4140625   s1.0234375-0.390625,1.4140625,0l1,1c0.390625,0.390625,0.390625,1.0234375,0,1.4140625C12.5117188,22.9023438,12.2558594,23,12,23   z"/>
   <path d="M12,19c-0.2558594,0-0.5117188-0.0976563-0.7070313-0.2929688l-1-1c-0.390625-0.390625-0.390625-1.0234375,0-1.4140625   s1.0234375-0.390625,1.4140625,0l1,1c0.390625,0.390625,0.390625,1.0234375,0,1.4140625C12.5117188,18.9023438,12.2558594,19,12,19   z"/>
   <path d="M20,23c-0.2558594,0-0.5117188-0.0976563-0.7070313-0.2929688c-0.390625-0.390625-0.390625-1.0234375,0-1.4140625l1-1   c0.390625-0.390625,1.0234375-0.390625,1.4140625,0s0.390625,1.0234375,0,1.4140625l-1,1   C20.5117188,22.9023438,20.2558594,23,20,23z"/>
   <path d="M20,19c-0.2558594,0-0.5117188-0.0976563-0.7070313-0.2929688c-0.390625-0.390625-0.390625-1.0234375,0-1.4140625l1-1   c0.390625-0.390625,1.0234375-0.390625,1.4140625,0s0.390625,1.0234375,0,1.4140625l-1,1   C20.5117188,18.9023438,20.2558594,19,20,19z"/>
   <polygon points="14,18 14,19.5999756 18,18 18,16.4000244  "/>
   <polygon points="18,21 18,19.4000244 14,21 14,22.5999756  "/>
   <polygon points="18,15 18,14 14,14 14,16.5999756  "/>
   <path d="M14,24c0,1.1045532,0.8954468,2,2,2c1.1046143,0,2-0.8954468,2-2v-1.5999756L14,24z"/>
   <rect x="13" y="6" width="6" height="2"/>
   <path d="M21,5H11c-0.5522852,0-1-0.4477153-1-1V2h12v2C22,4.5522847,21.5522842,5,21,5z"/>
   </g><text x="0" y="47" fill="#000000" font-size="5px" font-weight="bold" font-family="'Helvetica Neue', Helvetica, Arial-Unicode, Arial, Sans-serif">Created by M. Oki Orlando</text><text x="0" y="52" fill="#000000" font-size="5px" font-weight="bold" font-family="'Helvetica Neue', Helvetica, Arial-Unicode, Arial, Sans-serif">from the Noun Project</text></svg>